<?xml version="1.0" encoding="utf-8"?>
<!-- Generator: Adobe Illustrator 16.0.4, SVG Export Plug-In . SVG Version: 6.00 Build 0)  -->
<!DOCTYPE svg PUBLIC "-//W3C//DTD SVG 1.1//EN" "http://www.w3.org/Graphics/SVG/1.1/DTD/svg11.dtd">
<svg version="1.1" id="Layer_1" xmlns="http://www.w3.org/2000/svg" xmlns:xlink="http://www.w3.org/1999/xlink" x="0px" y="0px"
	 width="36px" height="36px" viewBox="0 0 36 36" enable-background="new 0 0 36 36" xml:space="preserve">
<g>
	<path fill="#60D193" d="M18,18c-1.817,0-3.57-0.275-5.224-0.776L0,30v6h36V0C36,9.941,27.941,18,18,18z"/>
	<path fill="#00A680" d="M0,0v30l12.776-12.776C5.384,14.984,0,8.124,0,0z"/>
	<path fill="#00A680" d="M12.776,17.224C14.43,17.725,16.183,18,18,18c9.941,0,18-8.059,18-18h-6L12.776,17.224z"/>
	<path fill="#078171" d="M12.776,17.224L30,0H0C0,8.124,5.384,14.984,12.776,17.224z"/>
</g>
</svg>
