<?xml version="1.0" encoding="utf-8"?>
<!-- Generator: Adobe Illustrator 21.0.2, SVG Export Plug-In . SVG Version: 6.00 Build 0)  -->
<svg version="1.1" id="Layer_1" xmlns="http://www.w3.org/2000/svg" xmlns:xlink="http://www.w3.org/1999/xlink" x="0px" y="0px"
	 viewBox="0 0 250 47" style="enable-background:new 0 0 250 47;" xml:space="preserve">
<style type="text/css">
	.st0{fill:#000A12;}
	.st1{fill:#FFFFFF;}
	.st2{fill:#F8C40F;}
	.st3{fill:#EF6945;}
	.st4{fill:#00AF87;}
	.st5{opacity:0.5;fill:#FFFFFF;}
</style>
<g>
	<path class="st0" d="M189.3,44.6l-2.8-8.9h1.2l1.4,4.4c0.4,1.2,0.7,2.3,1,3.3l0,0c0.2-1,0.7-2.2,1-3.3l1.5-4.4h1.2l-3.2,8.9
		C190.5,44.6,189.3,44.6,189.3,44.6z"/>
	<path class="st0" d="M195.7,35.8v8.9h-1.1v-8.9C194.6,35.8,195.7,35.8,195.7,35.8z"/>
	<path class="st0" d="M202.4,40.5h-3.5v3.2h3.8v1h-5v-8.9h4.8v1h-3.6v2.8h3.5V40.5L202.4,40.5z M200.7,33.8l1.3,1.5h-1l-0.9-0.9l0,0
		l-0.9,0.9h-1l1.3-1.5H200.7z M199.6,46.4c0-0.3,0.3-0.7,0.7-0.7s0.7,0.3,0.7,0.7s-0.3,0.7-0.7,0.7S199.6,46.7,199.6,46.4z"/>
	<path class="st0" d="M206.1,36.8h-2.7v-1h6.6v1h-2.7v7.9H206L206.1,36.8L206.1,36.8z"/>
	<path class="st0" d="M213.8,44.6v-8.9h1.2l2.8,4.5c0.7,1.1,1.2,2,1.6,2.8l0,0c-0.1-1.2-0.1-2.3-0.1-3.6v-3.7h1.1v8.9h-1.2l-2.7-4.5
		c-0.7-1-1.2-2-1.6-3l0,0c0.1,1.1,0.1,2.2,0.1,3.6v3.8L213.8,44.6L213.8,44.6z"/>
	<path class="st0" d="M223.8,41.9l-0.9,2.7h-1.2l3.1-8.9h1.4l3.1,8.9h-1.2l-1-2.7C227.1,41.9,223.8,41.9,223.8,41.9z M226.8,40.9
		l-0.9-2.5c-0.2-0.5-0.3-1.1-0.4-1.6l0,0c-0.1,0.5-0.3,1.1-0.4,1.6l-0.9,2.5H226.8z"/>
	<path class="st0" d="M237.8,40.8c-0.1-1.2-0.1-2.7-0.1-3.8l0,0c-0.3,1-0.7,2.2-1.1,3.4l-1.5,4.3h-0.9l-1.4-4.3
		c-0.4-1.2-0.8-2.4-1-3.4l0,0c0,1.1-0.1,2.6-0.2,3.9l-0.2,3.8h-1.1l0.7-8.9h1.4l1.5,4.3c0.3,1.1,0.7,2.1,0.9,3l0,0
		c0.2-0.9,0.5-1.9,1-3l1.5-4.3h1.4l0.5,8.9h-1.1L237.8,40.8z"/>
</g>
<g>
	<path class="st1" d="M179.2,3.7c0,1.3,1.1,2.4,2.4,2.4c1.3,0,2.4-1.1,2.4-2.4c0-1.3-1.1-2.4-2.4-2.4C180.3,1.3,179.2,2.4,179.2,3.7
		"/>
	<path class="st0" d="M63.7,3.6L60,4.8v4.8h-4.1v3.2h4v10.4c0,4.9,1.7,6.9,5.8,6.9c1,0,2-0.1,3-0.4l0.2,0l0-3.3l-0.3,0.1
		c-0.8,0.3-1.4,0.4-1.9,0.4c-1.9,0-2.7-1.1-2.7-4v-10h4.7V9.7H64V3.5L63.7,3.6z"/>
	<path class="st0" d="M76.4,12.9V9.7h-3.7v20.2h4.1V19.7c0-4.2,1.8-6.6,5-6.6c0.5,0,0.9,0.1,1.5,0.2l0.3,0.1l0.1-4l-1.8-0.1
		C79.5,9.3,77.6,10.6,76.4,12.9"/>
	<path class="st0" d="M105.6,9.2c-2.8,0-5.2,1.3-6.7,3.8V9.7h-3.7v28.4h4.1V27c1.5,2,3.6,3.1,6.2,3.1c5.2,0,8.5-4.2,8.5-10.8
		C114,13.3,110.6,9.2,105.6,9.2 M104.5,26.8c-3.2,0-5.3-2.8-5.3-7.2c0-4.3,2.1-7.1,5.4-7.1c3.2,0,5.1,2.6,5.1,7
		C109.7,24.1,107.7,26.8,104.5,26.8"/>
	<path class="st1" d="M125.9,9.2c-2.5,0-4.7,0.5-6.7,1.4l-0.1,0.1l0,3.5l0.3-0.2c1.9-1.1,3.7-1.6,5.4-1.6c3,0,4.7,1.7,4.7,4.7v0.2
		h-2.3c-6.7,0-10.4,2.4-10.4,6.9c0,3.6,2.7,6,6.5,6c2.8,0,5-1.1,6.5-3.2v2.9h3.7V17.6C133.5,12,131,9.2,125.9,9.2 M129.5,21.3
		c0,3.5-2.1,5.7-5.3,5.7c-2,0-3.4-1.3-3.4-3.2c0-2.4,2.3-3.8,6.6-3.8h2.1V21.3z"/>
	<path class="st1" d="M150.9,0v12.4c-1.5-2.1-3.6-3.2-6.3-3.2c-5,0-8.4,4.1-8.4,10.2c0,6.3,3.4,10.7,8.3,10.7c2.9,0,5.1-1.3,6.7-3.8
		v3.5h3.8V0H150.9z M145.6,26.8c-3.1,0-5.1-2.7-5.1-7.1c0-4.4,2-7.2,5-7.2c3.4,0,5.4,2.7,5.4,7.2C150.9,24,148.8,26.8,145.6,26.8"/>
	<polygon class="st1" points="173.3,9.7 167.5,21.3 162.1,9.7 157.5,9.7 167.4,29.8 177.5,9.7 	"/>
	<polygon class="st1" points="183.5,9.7 179.6,9.7 179.6,29.8 183.7,29.8 183.7,9.7 	"/>
	<path class="st1" d="M188.5,14.8c0,2.8,2,4.3,5.5,6.1c2.3,1.1,3.5,1.8,3.5,3.3c0,1.6-1.5,2.7-3.7,2.7c-1.6,0-3.4-0.5-5.1-1.3
		l-0.3-0.1l-0.1,3.6l0.1,0.1c1.7,0.7,3.5,1,5.3,1c5,0,8.2-2.4,8.2-6.1c0-3.1-2-4.6-5.6-6.3c-2.6-1.2-3.7-1.9-3.7-3.2
		c0-1.2,1.2-2,3.1-2c1.7,0,3.3,0.4,4.9,1.1l0.3,0.1l0.2-3.5l-0.2,0c-1.7-0.5-3.4-0.8-5-0.8C191.5,9.4,188.5,11.6,188.5,14.8"/>
	<path class="st1" d="M214.7,9.2c-6.1,0-10,4-10,10.6c0,6.5,3.8,10.6,10,10.6c6.2,0,10-4,10-10.6C224.7,13.2,220.8,9.2,214.7,9.2
		 M214.7,27c-3.4,0-5.7-2.9-5.7-7.3c0-4.4,2.3-7.3,5.7-7.3c3.5,0,5.7,2.9,5.7,7.3C220.4,24.1,218.1,27,214.7,27"/>
	<path class="st1" d="M232.2,12.9V9.7h-3.7v20.2h4.1V19.7c0-4.2,1.8-6.6,5-6.6c0.5,0,0.9,0.1,1.5,0.2l0.3,0.1l0.1-4l-1.8-0.1
		C235.3,9.3,233.4,10.6,232.2,12.9"/>
	<polygon class="st0" points="91,9.7 87.1,9.7 87.1,29.8 91.2,29.8 91.2,9.7 	"/>
	<path class="st0" d="M86.7,3.7c0,1.3,1.1,2.4,2.4,2.4c1.3,0,2.4-1.1,2.4-2.4c0-1.3-1.1-2.4-2.4-2.4C87.8,1.3,86.7,2.4,86.7,3.7"/>
	<path class="st2" d="M33.5,5.9c1.3-0.5,2.7-0.7,4-0.8c-3.6-1.6-7.7-2.4-12.2-2.4c-4.5,0-8.7,0.8-12.3,2.4
		c6.5,0.1,11.9,5.3,12.3,11.7c0.1-1.5,0.5-2.9,1.1-4.3C27.8,9.4,30.3,7.1,33.5,5.9"/>
	<path class="st1" d="M37.8,13.5c-2.3,0-4.1,1.8-4.1,4.1c0,2.3,1.8,4.1,4.1,4.1c2.3,0,4.1-1.8,4.1-4.1
		C41.9,15.3,40.1,13.5,37.8,13.5 M37.8,19.7c-1.2,0-2.1-0.9-2.1-2.1c0-1.2,0.9-2.1,2.1-2.1c1.2,0,2.1,0.9,2.1,2.1
		C39.9,18.8,39,19.7,37.8,19.7"/>
	<path class="st1" d="M34.3,8.3c-2.5,0.9-4.5,2.8-5.7,5.2c-1.1,2.4-1.2,5.2-0.3,7.7v0c0.9,2.5,2.8,4.5,5.2,5.7
		c2.5,1.1,5.2,1.2,7.7,0.3c5.2-1.9,7.9-7.7,6-13C45.4,9,39.6,6.4,34.3,8.3 M37.8,23.8c-3.4,0-6.2-2.8-6.2-6.2c0-3.4,2.8-6.2,6.2-6.2
		c3.4,0,6.2,2.8,6.2,6.2C44,21,41.3,23.8,37.8,23.8"/>
	<path class="st1" d="M12.5,13.5c-2.3,0-4.1,1.8-4.1,4.1c0,2.3,1.8,4.1,4.1,4.1c2.3,0,4.1-1.8,4.1-4.1
		C16.6,15.3,14.7,13.5,12.5,13.5 M12.5,19.7c-1.2,0-2.1-0.9-2.1-2.1c0-1.2,0.9-2.1,2.1-2.1c1.2,0,2.1,0.9,2.1,2.1
		C14.6,18.8,13.6,19.7,12.5,19.7"/>
	<path class="st1" d="M12.6,7.6c-5.6,0-10.1,4.5-10.1,10.1c0,5.6,4.5,10.1,10.1,10.1c5.6,0,10.1-4.5,10.1-10.1
		C22.7,12.1,18.2,7.6,12.6,7.6 M12.5,23.8c-3.4,0-6.2-2.8-6.2-6.2c0-3.4,2.8-6.2,6.2-6.2c3.4,0,6.2,2.8,6.2,6.2
		C18.7,21,15.9,23.8,12.5,23.8"/>
	<path class="st3" d="M12.5,15.5c-1.2,0-2.1,0.9-2.1,2.1c0,1.2,0.9,2.1,2.1,2.1c1.2,0,2.1-0.9,2.1-2.1
		C14.6,16.4,13.6,15.5,12.5,15.5"/>
	<path class="st4" d="M37.8,15.5c-1.2,0-2.1,0.9-2.1,2.1c0,1.2,0.9,2.1,2.1,2.1c1.2,0,2.1-0.9,2.1-2.1C39.9,16.4,39,15.5,37.8,15.5"
		/>
	<path class="st0" d="M48,10.2c0.6-2.5,2.5-5.1,2.5-5.1l-8.4,0c-4.7-3.1-10.5-4.7-16.8-4.7c-6.6,0-12.6,1.7-17.3,4.7L0,5.2
		c0,0,1.9,2.5,2.5,5C0.9,12.3,0,14.9,0,17.7c0,7,5.7,12.6,12.6,12.6c4,0,7.5-1.9,9.9-4.7l2.7,4l2.7-4.1c1.2,1.6,2.8,2.8,4.6,3.7
		c3.1,1.4,6.5,1.6,9.7,0.4c6.5-2.4,9.9-9.7,7.5-16.2C49.3,12.2,48.7,11.2,48,10.2 M33.6,26.9c-2.4-1.1-4.3-3.1-5.2-5.7v0
		c-0.9-2.5-0.8-5.3,0.3-7.7c1.1-2.4,3.1-4.3,5.7-5.2c5.2-1.9,11,0.8,13,6c1.9,5.2-0.8,11-6,13C38.8,28.2,36.1,28,33.6,26.9
		 M12.6,27.8c-5.6,0-10.1-4.5-10.1-10.1c0-5.6,4.5-10.1,10.1-10.1c5.6,0,10.1,4.5,10.1,10.1C22.7,23.3,18.2,27.8,12.6,27.8
		 M33.5,5.9c-3.2,1.2-5.7,3.5-7.1,6.6c-0.6,1.4-1,2.8-1.1,4.3c-0.5-6.5-5.8-11.6-12.3-11.7c3.6-1.5,7.8-2.4,12.3-2.4
		c4.5,0,8.6,0.8,12.2,2.4C36.1,5.2,34.8,5.4,33.5,5.9"/>
	<path class="st0" d="M12.5,11.4c-3.4,0-6.2,2.8-6.2,6.2c0,3.4,2.8,6.2,6.2,6.2c3.4,0,6.2-2.8,6.2-6.2
		C18.7,14.2,15.9,11.4,12.5,11.4 M12.5,21.7c-2.3,0-4.1-1.8-4.1-4.1c0-2.3,1.8-4.1,4.1-4.1c2.3,0,4.1,1.8,4.1,4.1
		C16.6,19.9,14.7,21.7,12.5,21.7"/>
	<path class="st0" d="M37.8,11.4c-3.4,0-6.2,2.8-6.2,6.2c0,3.4,2.8,6.2,6.2,6.2c3.4,0,6.2-2.8,6.2-6.2C44,14.2,41.3,11.4,37.8,11.4
		 M37.8,21.7c-2.3,0-4.1-1.8-4.1-4.1c0-2.3,1.8-4.1,4.1-4.1c2.3,0,4.1,1.8,4.1,4.1C41.9,19.9,40.1,21.7,37.8,21.7"/>
	<path class="st5" d="M249,7.3c0.7,0.7,1,1.6,1,2.5c0,1-0.4,1.9-1.1,2.5c-0.7,0.7-1.6,1-2.5,1c-1,0-1.9-0.4-2.5-1.1
		c-0.7-0.7-1-1.6-1-2.5c0-1,0.4-1.9,1.1-2.6c0.7-0.7,1.5-1,2.5-1C247.4,6.2,248.3,6.6,249,7.3z M244.4,7.7c-0.6,0.6-0.9,1.3-0.9,2.1
		c0,0.8,0.3,1.5,0.8,2c0.6,0.6,1.3,0.9,2.1,0.9c0.8,0,1.5-0.3,2.1-0.8c0.6-0.5,0.9-1.3,0.9-2.1c0-0.8-0.3-1.5-0.8-2.1
		c-0.6-0.6-1.3-0.9-2.1-0.9C245.6,6.8,244.9,7.1,244.4,7.7z M246.5,7.7c1.1,0,1.7,0.4,1.7,1.1c0,0.5-0.3,0.9-0.8,1.1l0.9,1.7H247
		l-0.7-1.6H246v1.6h-1.1V7.7H246.5z M246,9.5h0.4c0.5,0,0.7-0.2,0.7-0.5c0-0.4-0.2-0.5-0.8-0.5H246V9.5z"/>
</g>
</svg>
